<svg xmlns="http://www.w3.org/2000/svg" viewBox="0 0 512 512" width="512" height="512">
  <defs>
    <linearGradient id="bg" x1="0%" y1="0%" x2="100%" y2="100%">
      <stop offset="0%" style="stop-color:#6366f1"/>
      <stop offset="100%" style="stop-color:#8b5cf6"/>
    </linearGradient>
    <linearGradient id="screen" x1="0%" y1="0%" x2="0%" y2="100%">
      <stop offset="0%" style="stop-color:#1e1b4b"/>
      <stop offset="100%" style="stop-color:#312e81"/>
    </linearGradient>
    <linearGradient id="eye" x1="0%" y1="0%" x2="100%" y2="100%">
      <stop offset="0%" style="stop-color:#06b6d4"/>
      <stop offset="100%" style="stop-color:#22d3ee"/>
    </linearGradient>
  </defs>

  <!-- Rounded square background -->
  <rect x="16" y="16" width="480" height="480" rx="96" ry="96" fill="url(#bg)"/>

  <!-- Phone body -->
  <rect x="156" y="72" width="200" height="368" rx="24" ry="24" fill="#1e1b4b" stroke="#a5b4fc" stroke-width="4"/>

  <!-- Phone screen -->
  <rect x="172" y="108" width="168" height="280" rx="8" ry="8" fill="url(#screen)"/>

  <!-- AI Eye on screen -->
  <!-- Outer eye shape -->
  <path d="M196 248 Q256 200 316 248 Q256 296 196 248 Z" fill="none" stroke="url(#eye)" stroke-width="5" stroke-linecap="round"/>

  <!-- Iris -->
  <circle cx="256" cy="248" r="24" fill="url(#eye)" opacity="0.3"/>

  <!-- Pupil -->
  <circle cx="256" cy="248" r="14" fill="#22d3ee"/>

  <!-- Pupil highlight -->
  <circle cx="250" cy="242" r="5" fill="#ffffff" opacity="0.7"/>

  <!-- Scan lines on screen (subtle) -->
  <line x1="188" y1="160" x2="244" y2="160" stroke="#4f46e5" stroke-width="3" stroke-linecap="round" opacity="0.5"/>
  <line x1="188" y1="176" x2="268" y2="176" stroke="#4f46e5" stroke-width="3" stroke-linecap="round" opacity="0.4"/>
  <line x1="188" y1="192" x2="228" y2="192" stroke="#4f46e5" stroke-width="3" stroke-linecap="round" opacity="0.3"/>

  <!-- Bottom UI dots on screen -->
  <circle cx="228" cy="340" r="6" fill="#4f46e5" opacity="0.5"/>
  <circle cx="256" cy="340" r="6" fill="#22d3ee" opacity="0.8"/>
  <circle cx="284" cy="340" r="6" fill="#4f46e5" opacity="0.5"/>

  <!-- Connection signals from phone (left side) -->
  <path d="M148 200 Q120 220 128 248" fill="none" stroke="#a5b4fc" stroke-width="3" stroke-linecap="round" opacity="0.6"/>
  <path d="M136 188 Q100 216 112 252" fill="none" stroke="#a5b4fc" stroke-width="3" stroke-linecap="round" opacity="0.4"/>

  <!-- Connection signals from phone (right side) -->
  <path d="M364 200 Q392 220 384 248" fill="none" stroke="#a5b4fc" stroke-width="3" stroke-linecap="round" opacity="0.6"/>
  <path d="M376 188 Q412 216 400 252" fill="none" stroke="#a5b4fc" stroke-width="3" stroke-linecap="round" opacity="0.4"/>

  <!-- Touch indicator (tap finger) -->
  <circle cx="300" cy="296" r="10" fill="#f472b6" opacity="0.6"/>
  <circle cx="300" cy="296" r="18" fill="none" stroke="#f472b6" stroke-width="2" opacity="0.3"/>

  <!-- Home button / bar -->
  <rect x="228" y="408" width="56" height="6" rx="3" ry="3" fill="#a5b4fc" opacity="0.5"/>
</svg>
